# xmcd CD database file
#
# Track frame offsets:
#	150
#	11273
#	39540
#	50441
#	68064
#	82012
#	96633
#	117417
#	132065
#	142615
#	153489
#	166582
#	174935
#	189644
#	204357
#	215810
#
# Disc length: 3100 seconds
#
# Revision: 0
# Processed by: cddbd v1.5.1PL0 Copyright (c) Steve Scherf et al.
# Submitted via: CDex 1.51
#
DISCID=d40c1a10
DTITLE=Snooks Eaglin and Boogie Bill Webb - The Blues Of Snooks Eaglin and Boogie Bill Webb
DYEAR=2004
DGENRE=Blues
TTITLE0=Intro
TTITLE1=Mustang Sally
TTITLE2=Let The Four Winds Blow
TTITLE3=Guess Who?
TTITLE4=Drop The Bomb
TTITLE5=Money
TTITLE6=St. Pete Florida Blues
TTITLE7=San-Ho-Zay
TTITLE8=Country Boy Down In New Orleans
TTITLE9=Hideaway
TTITLE10=Johnny B. Goode
TTITLE11=Talk To Your Daughter
TTITLE12=You Got A Right
TTITLE13=You Better Watch, You Might Get Killed
TTITLE14=Kansas City
TTITLE15=Early In The Morning
EXTD=YEAR: 2004
EXTT0=
EXTT1=
EXTT2=
EXTT3=
EXTT4=
EXTT5=
EXTT6=
EXTT7=
EXTT8=
EXTT9=
EXTT10=
EXTT11=
EXTT12=
EXTT13=
EXTT14=
EXTT15=
PLAYORDER=
